<mxfile host="app.diagrams.net" modified="2024-04-26T01:43:18.863Z" agent="Mozilla/5.0 (Windows NT 10.0; Win64; x64) AppleWebKit/537.36 (KHTML, like Gecko) Chrome/122.0.0.0 Safari/537.36" etag="KVyXVGUpxSTjLBWiAAX-" version="24.0.7" type="github">
  <diagram name="第 1 页" id="h7MW-Ii9uqY4F-rVuS4S">
    <mxGraphModel dx="2514" dy="-291" grid="1" gridSize="10" guides="1" tooltips="1" connect="1" arrows="1" fold="1" page="1" pageScale="1" pageWidth="827" pageHeight="1169" math="0" shadow="0">
      <root>
        <mxCell id="0" />
        <mxCell id="1" parent="0" />
        <mxCell id="L3Szd93HhUc9F-tcwmS9-33" value="商家首页" style="swimlane;childLayout=stackLayout;resizeParent=1;resizeParentMax=0;horizontal=1;startSize=20;horizontalStack=0;html=1;" vertex="1" parent="1">
          <mxGeometry x="-20" y="1280" width="1770" height="610" as="geometry" />
        </mxCell>
        <mxCell id="L3Szd93HhUc9F-tcwmS9-34" value="B端APP" style="swimlane;startSize=20;horizontal=0;html=1;" vertex="1" parent="L3Szd93HhUc9F-tcwmS9-33">
          <mxGeometry y="20" width="1770" height="590" as="geometry" />
        </mxCell>
        <mxCell id="L3Szd93HhUc9F-tcwmS9-35" value="" style="edgeStyle=orthogonalEdgeStyle;rounded=0;orthogonalLoop=1;jettySize=auto;html=1;" edge="1" parent="L3Szd93HhUc9F-tcwmS9-34" source="L3Szd93HhUc9F-tcwmS9-36" target="L3Szd93HhUc9F-tcwmS9-38">
          <mxGeometry relative="1" as="geometry" />
        </mxCell>
        <mxCell id="L3Szd93HhUc9F-tcwmS9-36" value="开始" style="strokeWidth=2;html=1;shape=mxgraph.flowchart.terminator;whiteSpace=wrap;" vertex="1" parent="L3Szd93HhUc9F-tcwmS9-34">
          <mxGeometry x="80" y="190" width="100" height="60" as="geometry" />
        </mxCell>
        <mxCell id="L3Szd93HhUc9F-tcwmS9-37" value="" style="edgeStyle=orthogonalEdgeStyle;rounded=0;orthogonalLoop=1;jettySize=auto;html=1;" edge="1" parent="L3Szd93HhUc9F-tcwmS9-34" source="L3Szd93HhUc9F-tcwmS9-38" target="L3Szd93HhUc9F-tcwmS9-40">
          <mxGeometry relative="1" as="geometry" />
        </mxCell>
        <mxCell id="L3Szd93HhUc9F-tcwmS9-38" value="进入运营管理页" style="rounded=1;whiteSpace=wrap;html=1;absoluteArcSize=1;arcSize=14;strokeWidth=2;" vertex="1" parent="L3Szd93HhUc9F-tcwmS9-34">
          <mxGeometry x="240" y="190" width="110" height="60" as="geometry" />
        </mxCell>
        <mxCell id="L3Szd93HhUc9F-tcwmS9-39" value="" style="edgeStyle=orthogonalEdgeStyle;rounded=0;orthogonalLoop=1;jettySize=auto;html=1;" edge="1" parent="L3Szd93HhUc9F-tcwmS9-34" source="L3Szd93HhUc9F-tcwmS9-40">
          <mxGeometry relative="1" as="geometry">
            <mxPoint x="580" y="220" as="targetPoint" />
          </mxGeometry>
        </mxCell>
        <mxCell id="L3Szd93HhUc9F-tcwmS9-40" value="点击分享按钮" style="rounded=1;whiteSpace=wrap;html=1;absoluteArcSize=1;arcSize=14;strokeWidth=2;" vertex="1" parent="L3Szd93HhUc9F-tcwmS9-34">
          <mxGeometry x="410" y="190" width="110" height="60" as="geometry" />
        </mxCell>
        <mxCell id="L3Szd93HhUc9F-tcwmS9-73" value="" style="edgeStyle=orthogonalEdgeStyle;rounded=0;orthogonalLoop=1;jettySize=auto;html=1;" edge="1" parent="L3Szd93HhUc9F-tcwmS9-34" source="L3Szd93HhUc9F-tcwmS9-41" target="L3Szd93HhUc9F-tcwmS9-72">
          <mxGeometry relative="1" as="geometry" />
        </mxCell>
        <mxCell id="L3Szd93HhUc9F-tcwmS9-41" value="弹出分享面板" style="rounded=1;whiteSpace=wrap;html=1;absoluteArcSize=1;arcSize=14;strokeWidth=2;" vertex="1" parent="L3Szd93HhUc9F-tcwmS9-34">
          <mxGeometry x="580" y="190" width="110" height="60" as="geometry" />
        </mxCell>
        <mxCell id="L3Szd93HhUc9F-tcwmS9-81" value="" style="edgeStyle=orthogonalEdgeStyle;rounded=0;orthogonalLoop=1;jettySize=auto;html=1;" edge="1" parent="L3Szd93HhUc9F-tcwmS9-34" source="L3Szd93HhUc9F-tcwmS9-72" target="L3Szd93HhUc9F-tcwmS9-80">
          <mxGeometry relative="1" as="geometry" />
        </mxCell>
        <mxCell id="L3Szd93HhUc9F-tcwmS9-72" value="点击“首页二维码”按钮" style="whiteSpace=wrap;html=1;rounded=1;arcSize=14;strokeWidth=2;" vertex="1" parent="L3Szd93HhUc9F-tcwmS9-34">
          <mxGeometry x="765" y="190" width="120" height="60" as="geometry" />
        </mxCell>
        <mxCell id="L3Szd93HhUc9F-tcwmS9-77" value="" style="edgeStyle=orthogonalEdgeStyle;rounded=0;orthogonalLoop=1;jettySize=auto;html=1;" edge="1" parent="L3Szd93HhUc9F-tcwmS9-34" source="L3Szd93HhUc9F-tcwmS9-74" target="L3Szd93HhUc9F-tcwmS9-76">
          <mxGeometry relative="1" as="geometry" />
        </mxCell>
        <mxCell id="L3Szd93HhUc9F-tcwmS9-74" value="点击“首页链接”按钮" style="whiteSpace=wrap;html=1;rounded=1;arcSize=14;strokeWidth=2;" vertex="1" parent="L3Szd93HhUc9F-tcwmS9-34">
          <mxGeometry x="765" y="60" width="120" height="60" as="geometry" />
        </mxCell>
        <mxCell id="L3Szd93HhUc9F-tcwmS9-90" value="" style="edgeStyle=orthogonalEdgeStyle;rounded=0;orthogonalLoop=1;jettySize=auto;html=1;" edge="1" parent="L3Szd93HhUc9F-tcwmS9-34" source="L3Szd93HhUc9F-tcwmS9-75" target="L3Szd93HhUc9F-tcwmS9-89">
          <mxGeometry relative="1" as="geometry" />
        </mxCell>
        <mxCell id="L3Szd93HhUc9F-tcwmS9-75" value="点击“首页名片”按钮" style="whiteSpace=wrap;html=1;rounded=1;arcSize=14;strokeWidth=2;" vertex="1" parent="L3Szd93HhUc9F-tcwmS9-34">
          <mxGeometry x="765" y="320" width="120" height="60" as="geometry" />
        </mxCell>
        <mxCell id="L3Szd93HhUc9F-tcwmS9-79" value="" style="edgeStyle=orthogonalEdgeStyle;rounded=0;orthogonalLoop=1;jettySize=auto;html=1;" edge="1" parent="L3Szd93HhUc9F-tcwmS9-34" source="L3Szd93HhUc9F-tcwmS9-76" target="L3Szd93HhUc9F-tcwmS9-78">
          <mxGeometry relative="1" as="geometry" />
        </mxCell>
        <mxCell id="L3Szd93HhUc9F-tcwmS9-76" value="复制商家首页链接&lt;div&gt;到剪贴板&lt;/div&gt;" style="whiteSpace=wrap;html=1;rounded=1;arcSize=14;strokeWidth=2;" vertex="1" parent="L3Szd93HhUc9F-tcwmS9-34">
          <mxGeometry x="965" y="60" width="120" height="60" as="geometry" />
        </mxCell>
        <mxCell id="L3Szd93HhUc9F-tcwmS9-78" value="toast提示复制成功" style="whiteSpace=wrap;html=1;rounded=1;arcSize=14;strokeWidth=2;" vertex="1" parent="L3Szd93HhUc9F-tcwmS9-34">
          <mxGeometry x="1165" y="60" width="120" height="60" as="geometry" />
        </mxCell>
        <mxCell id="L3Szd93HhUc9F-tcwmS9-83" value="" style="edgeStyle=orthogonalEdgeStyle;rounded=0;orthogonalLoop=1;jettySize=auto;html=1;" edge="1" parent="L3Szd93HhUc9F-tcwmS9-34" source="L3Szd93HhUc9F-tcwmS9-80" target="L3Szd93HhUc9F-tcwmS9-82">
          <mxGeometry relative="1" as="geometry" />
        </mxCell>
        <mxCell id="L3Szd93HhUc9F-tcwmS9-80" value="基于商家首页链接&lt;div&gt;请求接口获取二维码图片&lt;/div&gt;" style="whiteSpace=wrap;html=1;rounded=1;arcSize=14;strokeWidth=2;" vertex="1" parent="L3Szd93HhUc9F-tcwmS9-34">
          <mxGeometry x="965" y="190" width="120" height="60" as="geometry" />
        </mxCell>
        <mxCell id="L3Szd93HhUc9F-tcwmS9-85" value="" style="edgeStyle=orthogonalEdgeStyle;rounded=0;orthogonalLoop=1;jettySize=auto;html=1;" edge="1" parent="L3Szd93HhUc9F-tcwmS9-34" source="L3Szd93HhUc9F-tcwmS9-82" target="L3Szd93HhUc9F-tcwmS9-84">
          <mxGeometry relative="1" as="geometry" />
        </mxCell>
        <mxCell id="L3Szd93HhUc9F-tcwmS9-82" value="用户点击保存按钮" style="whiteSpace=wrap;html=1;rounded=1;arcSize=14;strokeWidth=2;" vertex="1" parent="L3Szd93HhUc9F-tcwmS9-34">
          <mxGeometry x="1165" y="190" width="120" height="60" as="geometry" />
        </mxCell>
        <mxCell id="L3Szd93HhUc9F-tcwmS9-84" value="toast提示保存成功" style="whiteSpace=wrap;html=1;rounded=1;arcSize=14;strokeWidth=2;" vertex="1" parent="L3Szd93HhUc9F-tcwmS9-34">
          <mxGeometry x="1365" y="190" width="120" height="60" as="geometry" />
        </mxCell>
        <mxCell id="L3Szd93HhUc9F-tcwmS9-92" value="" style="edgeStyle=orthogonalEdgeStyle;rounded=0;orthogonalLoop=1;jettySize=auto;html=1;" edge="1" parent="L3Szd93HhUc9F-tcwmS9-34" source="L3Szd93HhUc9F-tcwmS9-89" target="L3Szd93HhUc9F-tcwmS9-91">
          <mxGeometry relative="1" as="geometry" />
        </mxCell>
        <mxCell id="L3Szd93HhUc9F-tcwmS9-106" value="" style="edgeStyle=orthogonalEdgeStyle;rounded=0;orthogonalLoop=1;jettySize=auto;html=1;" edge="1" parent="L3Szd93HhUc9F-tcwmS9-34" source="L3Szd93HhUc9F-tcwmS9-89" target="L3Szd93HhUc9F-tcwmS9-93">
          <mxGeometry relative="1" as="geometry" />
        </mxCell>
        <mxCell id="L3Szd93HhUc9F-tcwmS9-89" value="是否有配置背景图" style="rhombus;whiteSpace=wrap;html=1;rounded=1;arcSize=14;strokeWidth=2;" vertex="1" parent="L3Szd93HhUc9F-tcwmS9-34">
          <mxGeometry x="970" y="310" width="120" height="80" as="geometry" />
        </mxCell>
        <mxCell id="L3Szd93HhUc9F-tcwmS9-105" value="" style="edgeStyle=orthogonalEdgeStyle;rounded=0;orthogonalLoop=1;jettySize=auto;html=1;" edge="1" parent="L3Szd93HhUc9F-tcwmS9-34" source="L3Szd93HhUc9F-tcwmS9-91" target="L3Szd93HhUc9F-tcwmS9-104">
          <mxGeometry relative="1" as="geometry" />
        </mxCell>
        <mxCell id="L3Szd93HhUc9F-tcwmS9-107" value="" style="edgeStyle=orthogonalEdgeStyle;rounded=0;orthogonalLoop=1;jettySize=auto;html=1;" edge="1" parent="L3Szd93HhUc9F-tcwmS9-34" source="L3Szd93HhUc9F-tcwmS9-91" target="L3Szd93HhUc9F-tcwmS9-100">
          <mxGeometry relative="1" as="geometry" />
        </mxCell>
        <mxCell id="L3Szd93HhUc9F-tcwmS9-91" value="弹窗展示名片&lt;div&gt;（带有背景图）&lt;/div&gt;" style="whiteSpace=wrap;html=1;rounded=1;arcSize=14;strokeWidth=2;" vertex="1" parent="L3Szd93HhUc9F-tcwmS9-34">
          <mxGeometry x="1165" y="320" width="120" height="60" as="geometry" />
        </mxCell>
        <mxCell id="L3Szd93HhUc9F-tcwmS9-101" value="" style="edgeStyle=orthogonalEdgeStyle;rounded=0;orthogonalLoop=1;jettySize=auto;html=1;" edge="1" parent="L3Szd93HhUc9F-tcwmS9-34" source="L3Szd93HhUc9F-tcwmS9-93" target="L3Szd93HhUc9F-tcwmS9-100">
          <mxGeometry relative="1" as="geometry" />
        </mxCell>
        <mxCell id="L3Szd93HhUc9F-tcwmS9-93" value="弹窗展示名片&lt;div&gt;（不带背景图）&lt;/div&gt;" style="whiteSpace=wrap;html=1;rounded=1;arcSize=14;strokeWidth=2;" vertex="1" parent="L3Szd93HhUc9F-tcwmS9-34">
          <mxGeometry x="970" y="470" width="120" height="60" as="geometry" />
        </mxCell>
        <mxCell id="L3Szd93HhUc9F-tcwmS9-97" value="是" style="text;html=1;align=center;verticalAlign=middle;resizable=0;points=[];autosize=1;strokeColor=none;fillColor=none;" vertex="1" parent="L3Szd93HhUc9F-tcwmS9-34">
          <mxGeometry x="1100" y="320" width="40" height="30" as="geometry" />
        </mxCell>
        <mxCell id="L3Szd93HhUc9F-tcwmS9-98" value="否" style="text;html=1;align=center;verticalAlign=middle;resizable=0;points=[];autosize=1;strokeColor=none;fillColor=none;" vertex="1" parent="L3Szd93HhUc9F-tcwmS9-34">
          <mxGeometry x="1030" y="410" width="40" height="30" as="geometry" />
        </mxCell>
        <mxCell id="L3Szd93HhUc9F-tcwmS9-103" value="" style="edgeStyle=orthogonalEdgeStyle;rounded=0;orthogonalLoop=1;jettySize=auto;html=1;" edge="1" parent="L3Szd93HhUc9F-tcwmS9-34" source="L3Szd93HhUc9F-tcwmS9-100" target="L3Szd93HhUc9F-tcwmS9-102">
          <mxGeometry relative="1" as="geometry" />
        </mxCell>
        <mxCell id="L3Szd93HhUc9F-tcwmS9-100" value="点击&quot;保存图片&quot;按钮" style="whiteSpace=wrap;html=1;rounded=1;arcSize=14;strokeWidth=2;" vertex="1" parent="L3Szd93HhUc9F-tcwmS9-34">
          <mxGeometry x="1165" y="470" width="120" height="60" as="geometry" />
        </mxCell>
        <mxCell id="L3Szd93HhUc9F-tcwmS9-102" value="toast提示保存成功" style="whiteSpace=wrap;html=1;rounded=1;arcSize=14;strokeWidth=2;" vertex="1" parent="L3Szd93HhUc9F-tcwmS9-34">
          <mxGeometry x="1365" y="470" width="120" height="60" as="geometry" />
        </mxCell>
        <mxCell id="L3Szd93HhUc9F-tcwmS9-109" value="" style="edgeStyle=orthogonalEdgeStyle;rounded=0;orthogonalLoop=1;jettySize=auto;html=1;" edge="1" parent="L3Szd93HhUc9F-tcwmS9-34" source="L3Szd93HhUc9F-tcwmS9-104" target="L3Szd93HhUc9F-tcwmS9-108">
          <mxGeometry relative="1" as="geometry" />
        </mxCell>
        <mxCell id="L3Szd93HhUc9F-tcwmS9-104" value="点击“去除背景图”或“增加背景图”按钮" style="whiteSpace=wrap;html=1;rounded=1;arcSize=14;strokeWidth=2;" vertex="1" parent="L3Szd93HhUc9F-tcwmS9-34">
          <mxGeometry x="1365" y="320" width="120" height="60" as="geometry" />
        </mxCell>
        <mxCell id="L3Szd93HhUc9F-tcwmS9-108" value="名片对应去除&lt;div&gt;或者增加背景图&lt;/div&gt;" style="whiteSpace=wrap;html=1;rounded=1;arcSize=14;strokeWidth=2;" vertex="1" parent="L3Szd93HhUc9F-tcwmS9-34">
          <mxGeometry x="1565" y="320" width="120" height="60" as="geometry" />
        </mxCell>
        <mxCell id="L3Szd93HhUc9F-tcwmS9-110" value="" style="endArrow=classic;html=1;rounded=0;exitX=0.5;exitY=0;exitDx=0;exitDy=0;entryX=0;entryY=0.5;entryDx=0;entryDy=0;" edge="1" parent="L3Szd93HhUc9F-tcwmS9-34" source="L3Szd93HhUc9F-tcwmS9-41" target="L3Szd93HhUc9F-tcwmS9-74">
          <mxGeometry width="50" height="50" relative="1" as="geometry">
            <mxPoint x="500" y="90" as="sourcePoint" />
            <mxPoint x="550" y="40" as="targetPoint" />
            <Array as="points">
              <mxPoint x="635" y="90" />
            </Array>
          </mxGeometry>
        </mxCell>
        <mxCell id="L3Szd93HhUc9F-tcwmS9-111" value="" style="endArrow=classic;html=1;rounded=0;exitX=0.5;exitY=1;exitDx=0;exitDy=0;entryX=0;entryY=0.5;entryDx=0;entryDy=0;" edge="1" parent="L3Szd93HhUc9F-tcwmS9-34" source="L3Szd93HhUc9F-tcwmS9-41" target="L3Szd93HhUc9F-tcwmS9-75">
          <mxGeometry width="50" height="50" relative="1" as="geometry">
            <mxPoint x="420" y="390" as="sourcePoint" />
            <mxPoint x="470" y="340" as="targetPoint" />
            <Array as="points">
              <mxPoint x="635" y="350" />
            </Array>
          </mxGeometry>
        </mxCell>
      </root>
    </mxGraphModel>
  </diagram>
</mxfile>
